<mxfile host="65bd71144e" scale="3" border="0">
    <diagram id="la2smpjuToDTlKppSVCx" name="第 1 页">
        <mxGraphModel dx="873" dy="788" grid="1" gridSize="10" guides="1" tooltips="1" connect="1" arrows="1" fold="1" page="1" pageScale="1" pageWidth="827" pageHeight="1169" math="0" shadow="0">
            <root>
                <mxCell id="0"/>
                <mxCell id="1" parent="0"/>
                <mxCell id="7" value="" style="edgeStyle=none;html=1;" edge="1" parent="1" source="3" target="6">
                    <mxGeometry relative="1" as="geometry"/>
                </mxCell>
                <mxCell id="3" value="" style="shape=image;imageAspect=0;aspect=fixed;verticalLabelPosition=bottom;verticalAlign=top;image=data:image/jpeg,/9j/4AAQSkZJRgABAQAAAQABAAD/2wBDAAgGBgcGBQgHBwcJCQgKDBQNDAsLDBkSEw8UHRofHh0aHBwgJC4nICIsIxwcKDcpLDAxNDQ0Hyc5PTgyPC4zNDL/2wBDAQkJCQwLDBgNDRgyIRwhMjIyMjIyMjIyMjIyMjIyMjIyMjIyMjIyMjIyMjIyMjIyMjIyMjIyMjIyMjIyMjIyMjL/wAARCAGAAgADASIAAhEBAxEB/8QAHwAAAQUBAQEBAQEAAAAAAAAAAAECAwQFBgcICQoL/8QAtRAAAgEDAwIEAwUFBAQAAAF9AQIDAAQRBRIhMUEGE1FhByJxFDKBkaEII0KxwRVS0fAkM2JyggkKFhcYGRolJicoKSo0NTY3ODk6Q0RFRkdISUpTVFVWV1hZWmNkZWZnaGlqc3R1dnd4eXqDhIWGh4iJipKTlJWWl5iZmqKjpKWmp6ipqrKztLW2t7i5usLDxMXGx8jJytLT1NXW19jZ2uHi4+Tl5ufo6erx8vP09fb3+Pn6/8QAHwEAAwEBAQEBAQEBAQAAAAAAAAECAwQFBgcICQoL/8QAtREAAgECBAQDBAcFBAQAAQJ3AAECAxEEBSExBhJBUQdhcRMiMoEIFEKRobHBCSMzUvAVYnLRChYkNOEl8RcYGRomJygpKjU2Nzg5OkNERUZHSElKU1RVVldYWVpjZGVmZ2hpanN0dXZ3eHl6goOEhYaHiImKkpOUlZaXmJmaoqOkpaanqKmqsrO0tba3uLm6wsPExcbHyMnK0tPU1dbX2Nna4uPk5ebn6Onq8vP09fb3+Pn6/9oADAMBAAIRAxEAPwD3iiiloATFLRRQIKKKKACiiloASiikJoAK4fx34+j8NWzW9nGJ75hgLnhM9zUPjvx/HodrLaaYUm1AjHXiP3NeHX2pXN87S3Mu+Zzl2z1NZTnbRGtOnzasdqerXWpzPPdSl5pDl2znJ/wrNPWgmmmsDqAntTeoo7UHGKQCE8dab2oJFJnjGaBBmkzmgmmk80ALxnimk0vrTT1oAM0E4+tJj1pQC3QUANpwjx96ngBRx19aaWzxQArHnAFNpPrS/SgA7U31p1IaYCDpzTTTjTT600IaelRMcMDUhqJhu4qkSy3G1aeh6pdaHqkN5ayBZIXDJ7jpg/yNZEWV+U9anALAYPIOR7+1NaA1dH1hoOuW+v6Nb6jbH5ZV+Ze6N3U/Q1pg187/AA98ZTeHr3yZCXspiPMj9P8AaHvXv8FzFcwJPC4eNwGVh3FbRdznlGxazSZqPdmnZqiR+aTNN3UZoAfSZpuaM0CFozxSZpM0AOopuaM0AKTSUUUgCkNLSGgAoopaAEooooASiikosAUUUhosAGkopKACkzQaQmkBp0UUVQBRRRSAWiiimAUlFRXFxFawPNNIscaDLMxwAKAJHYIpZiAB1Jry3x38Q2jgn07RJR5uNr3HZfpWT45+IZ1WGew0qcxWnKtOp5f6V5eXIQIGbaPU5rGdTojenSvrIdLdTSg+bKZGJyznqxqsW9acx4xmo6xOgXrSEgUE46U3NAATTCc0ZpDQITvRR0pMZoATJNIT2paT3pAJzRRmlC9zQABSxyelO4AwOlGTSZzQAnNIBTyM02gYhFGDinCkJ7UAJ0FJS4ptMQhppNKTxSIjOc4IFNCGHLHA5NSJFg7jU6RBDwKk2jHtTuKxXZPzFOQ8VIy8cdRUXfI6Hr7UDJo38lwQcbjkfWvZfhn4raSMaRcODnJhYnp7V4yBuXHfsfQ+taOjanLZ3cdxEdjowYY9Rz/OqT6kSjfQ+plY9zTt1ZWi6vba1pcN7bOGSReR3Vu4PuK0ga3OYlzS5qMGlzQA/PNJnHSkzSZoAcCcc0uabmimIXNJk5oFFIB2aM0maKYBRRSDOMmgB1FJRmgAozSZpM0ALRSE0maAFpDRSGgApM0UmaQAaaaU000Aa1FFFAC0UUUAFJRWTr3iCy8P2LXN3IAQPlQfeY+wovYLFvUtStNKspLu8mWKGMZJJrwzxl4+fxMkkFuzxafyFQZBk9z7VneJfGt94kmd7lDFACRFBnjHqfeuVZyeTWE530R0U6VtWIThdqgBR0AphJ60E5pp6VmbiU0mgmkJoEISKbQeaDQAU38aXJpvWkAE02lPWkoAPxpoGTxTwhJ5p3QdKBjQoXNBpSeOaTrSAOlAHfNA4o4oATGaMUpooASmmnZppNMBD+tJ16cmpEiaTnoKsLAFIKii4FdICTl/yqwEAHFTCPFAXGaVwIdval28VJtPTvS7TmncRCV/Oo3XjPY9asEc01l4NUmIrISDilhbbMy+/wDn+dI67DUedtyp9RVITPSPh34lOlaulpNJi1uiFbJ4V+x/p/8Aqr29Wr5YhkKuGBr3XwJ4qXW9MFtcP/ptuoDZ/jXs3+NXTl0MqseqO1DUoPFQhuKeDWhkSZ5pcmmU7NAh1ApuaXNMB2aKbS0CFBpabRmgB2aM03NGaAFzRmkzRmgQtJSZozQAuaTNJmimMXNJmkzRQAUUlFIBKaaU000AbFFFFMAopCQBk9K888Y/EW3sPN07SpUluxxJIDkR/wD16ltLcaTbsjc8U+M7Lw/C0asJrwj5YlPT3NeD6v4g1LVb2S51C48yVidqj7qD0FZ895PJPLLLcSSySsS7u3Wqp5OawlJyOqFNR9RzHdkk8mozSHGc5puTUFimmMeKU8000AJzSUE4ppNACGiikNIBetNJpSeKQKSaAG9elPC45p4AUYzTeppDEzRml20UANxmlpcYFITQMSggUvSm0AFB4ozSpE0p46etADBkngZqxFb87m5PpU8cITpye5qdVx2pNhYjCelO2+wqULzSBeaQEe3tQV45qUL3oK96AI8e1NI7iptpHOKaV5piIdvNNI6jFS44xTcVQivImRVCc7NpPZq1MMWOcbe1QTQK/wB4cVcXYloSNsgYrc0DV5tG1SG8hPzIeR2Ze4rnkBjYofw9xVyL5AoByMcZoY90fTGmahBqenw3lu2Y5VyPb2q8DXlfwu10+ZLpMrfKw8yHJ7j7w/r+deog1vF3RzSjZ2JQaXNR5pc0ySTNL3pgNKDTEPzS02jNADs0ZpM0lAh1GaSkzQAuaKTNGaAFpM0maKYC0ZpM0maAFopM0maAF4pDRSUgA02lNNJoA2qjnnitomlmdUjUZLMcAVU1TV7PR7Rrm8mWNAOMnk+wrwvxb471LXr+SAKYNOQ/Igbl/c1MpJFRg5M6Hxj8T/tcs2maOzJCvyyXGPvey15Y5G92UYLHJJ6n6055C7Fj3qIk54rBybOqMVFaCE00k/jSnI700kA9KRQ0mmk0E5pCaQCZpMikJzSUDEzSZpTSE4oEJQaXqeKcAF9zSGNCZPPFPLYXGOKTPFJzSAQClxS96O9AxDxSZ707FJjBpAIaT6UtJQAZxTaXksABmrMNvg7jyaAI4rYt8z9PSriR46DGKeqe1SBcGpbHYaq+1KRipAuaULSGMVeOtOK98U4DFL160AR4GfagripNvH0pCKYhhABphGal2+tIVFMCEr7U0rUxHemEVRJEwwQaYwHNWCMim+WS2KaYii8Jk4UfMOlSm2uoIQ80DojH5SRxmtazt180EiulW3jvbB7CfAjkHyt/cbsaTqWdhqGhymjajLpuo295CcSROGA9fUfj0r6G03UIdT0+C8t2zFKgYe3tXzbNFJZ3LwTLtkjbaw9DXpPwy8QCOaTSJ3+WU74cn+LuPx6/nW0HZ2Makbq56rmlBqMGlBrYwJQacKjBpwNAEgNGaZmlzTAdmlpmRmlzQIdmjNNzS5oELmjNNzRmmA7NJmkzSZoAXNBNJSUALmikzSUALRmkzSGgBSabRmkNAzwXxN4j1DXtWa6uZyIh/q7cfdQe/vWFI5kYs5JY9zT3J3ZJyTUbd65L33OxJLREZIxTS1OOaaR60DGE5ppzTv6U1jikAh4ppI9aCxphOKAFP1ppNJmkzk8UALnilVN3JPFKE9fypSc9aQw4FJRj8aUYpANxmlxzSjmikMQilo4ooAOgpueaU0h9qAE6UqI0rcDj1qaG3L4L9PSriRbcYHFJsdiKK3CduanCbTg1JsGRx0p+zI5qbjsMA7CnBSSKkCilx6UhjQvrRgdqcB607Az0oAZjtRind+1AFMBgGTSkU8jFJ1oERkZ9qTFSFc80mKYiLHtTduKlxzzQR2qgI9nanKgH1p3TtT1GfrQIsQYHBrYtZMrgnpWPH+tXbeQg5BrOSLQeI7D7TbLqMS5lhAWYf3k6A/h0/Kubsb2Wwv4p4HIeJg6N/Ku3hl65AZGGGU9CD1FchqmmiyvpI1J2Y3wk91Pb6j+la053VmRONj3Xw54gtvEGmpcRELMoxLFnlG/w9K2Qa+ffDOuTaJqkVwjHaDiRR/EvcV71BcJcW8c8TBo5FDKR3Brqi7o5Zx5WWQacDUIang1RBLmlzUQNOBoESdetGBTAadTELmlptGaAHZozSZopgLmkzSUUCFzRmkzSUALRSZooAM0UlGaACkJozSE0DPm519BUR4p+AV75AqIjPXNcZ2jW9qYRTm45xUTHmgBGPHAphbPWg0xjQAFqaTRmnKmRlunpQA1V3dqfgL0pc49qTqeaQxD14paKOppDE70oFHSlzSASigniigBM80Z96Oc1NFbljlulAyJUeThR+JqzFBsPqasLGFGKkCipbHYaicc1KFHWlVafsBXBGQakYm3A7U8KD9aUAYwTzSgHGaQxuKeFzwBS4FKM9KAGkYoxkZ704BuSQOvFLj2/CmIjKg9sinbfanY7UAZPpQAzGaQjkGnjg0EZFMBgFJg+tSY7UwimIbikIxT/AHoNAEeM04DvS/rQMj6UxEi8YIqxG21vwqqvXFSK2DSGjVt5ecHpUGvwJPpZkJAeE5Un34IqGObaOTVbUrqS5tzbxqSzdh3pRi+ZWG3oYCuVYEda9I8F+LZbHSZbW7ikkjj5tz/NfpXJ2GibcSXYy39zsPrWxtwAAMAdK9ehhH8Uxxw/N8Z6D4e8RnVLiWC4CpIfmjA9PSumDV49bXMlncxzxNh0OQa9Q0nUo9UsI7mMjnhh/dbuKeIpcjutjHEUeR3jsaYanZqIGnA1znKSg04Gos04GmSPzS9aaDRmgQ6jNNzS0wFopKKBC0maKTNAC5pKTNGaAFzTScUZo69aAGgk9BxSmn5AGBUZNAz5rIJ/iP51E/pkk/WpWJ9RUTdOTXGdhGcHimHGRTmGM1CzAUADNjgVHnJwOtKFLH2qRSAMAUAKse3BPWg5yaQt9aQ+5pFAKWkzxQTSAUdaM0m7ikzQMd160c/hTc5NLmkAvSlVWc4UU+OBmOT0q7HGBgAUmx2IYoAp9TVkL2pyqA2cU7bxipbKsNAzT8c8UoXBp47ACkAijBqQDjApoAHqaeB37Uhhj0p4560gXmngelACbaD+ooxTgM4NACA5/Gkwc4p4FGKAGge9IeuaeR+dBHINMBg6+1LtHalxjijrxigQzNIRTz1zimkDOaYDMUYpxI6AUmOxpiGDjNFOI5ppPBOcY60wFz7U0uRzWnY6PJcxC4uHMMHUA9T7+1SvZ2inESs2P4mJ5/CumnhZz2FC83aJnQQSz4J+VPU/0rQihjhHyDk9SetOxjgUterQw0KWu7OyFNRFDUuajNOzXSWBNbfhjVDpuoBGbFvNw4PY9jWJ1zSbiOlKcVKPKyJxUo8rPY1YEAg5Bp4Ncp4P1n7ZaGynb/SIB8uf4k7H8K6kGvJnFwlys8mcHCTiyUNTgaiDU4NUmZLmlBqMGnA0xEmaM0zNLmmIdmim5ozQAuaSjNJmgQuaSkzRmmAuaM0maTNIBSaaaCaQmgZ84OpB7VAxx1rReIkZANZ9wvl5J4rjOwrSP+FRbc8t0prSLu680hlHc07ASlvTpSZqHzcnrSb6VguTF+KTdx1qLdQWosMk3YFG7mos0bqLDJc+9Ln1qINT0DSHA6etIB27nAqeKAlgWFLDAByBzV5FwB61DZSEROKlUY5oAHBIp4HbtUFAFGead24pVHrTgDnjpSGIBz0pwTJpQMGnAce4oAMcdacOMGgKQc9MdqdjmgAUcmnAEfWk2ml64xQMDyaUAUDPT9acByRQAg60HrmjvxQM5oEJkUuBnHagj0oGPxoATaOlIadR1HSmIYfbpTMEHFPIA4pMYpgN6Gm0pxilVHlfCDJ71STeiERMc81atLUySo8i5TOdvdvartnpLOQ/X1JHA/xrVW3SBcLye5NejQwf2qn3GkaX8xBKZZsGU4UdEHQUxYmlkWKJSzsdqqO5qSQ9ariVopFkjYh1IZSOxFeklZWidEVZWRdfQtRVWdoMY7Fhmsw8cd67my8Q2mqxCKdTFdkevyufb0rltYsXtLtnC4RySPY+lebg8bWlWdHEx5ZdPMiNR83LIzhSjikzRnivWNRc000pppIxTAnsr17C+iuoz80Zz9favUtN1CLUrKO5hPyuOR6HuK8hbHeug8IayLG/NpK2Lec8Z6K//wBeufE0uaPMt0c2Jpc0eZbo9Kye1OXg571CrZqQGvNPMJgadmogaeDTEPHWlzTAaXNBI/NGabmjFAC5ozSUmaYC0lFJmgQpIHWjOaaRmjtimAE0hNIRnvRtwOtAHl/gbQLXxaxY3cUaxn54v+WhHqB6e9bvxG+HOkroAvrBltZbZcFXkwJR+P8AF/OuA+HOpHSvGNhLu2xyP5T+4bj/AAr6N1XTLbWNLuLC6TdDOhU+3uPcVlFJxNajaZ8cPblT1YUzymH8Zrp/EWi3Wka1cabcgedbkjcf417MPwrCaPnpWb0NVZlXZIBw1GJB0was7eOlGBSuVYr5lB+6D+NG9/7hqxtFJtFK47FfzSOqn8qfFvm3eWjNtG5sDoPWpdoo245HWldBZjo4i3LflV2NNvSqsD5O09R+tXV56dKiRaJUGBipl/XvUKrxzUyEelQykSgU8DtTVPGKeBkVIx2O9DOUXIUtk4wKAT1p4GCaQwxTgO9KMY+lKT6CgAHJ+tOx70gUDingfnQMMcY60uMc0ZFGaBBmjFAx+VHuKBgOoNL70nb2pRx1/CgQDPSm807k/hSZ74pgBIpBxQeufWkJxxTEBwRg0w8CnhWkbCjmtnTNElucSY2p3kYcfgK3pUJVNtu41Fsy4LKSd1BDDPRR1NdBa6OkKhpgAOyD+p71rwWcNkmI1y3dj1NRyvya9OjRhT+HfuaKy2K7kKMKAB6CqsjZqaRqqSGulIuKIJDVZ+tSyNUDGtUaoQEggg4IrpLG+j1e3+xXhHnYwr/3/wD69c0TSq7IwZWKsDkEdq58Vho1422a2fZkVKamvMku7aSzuXgkHKnr6ioM1vyhdc0w3CAfbIBhwP4hXOFqMLWdSLjPSUdH/XZhTm5Kz3Q8saYz0wvUbPXWjWw5mzTBnNNY00P2JqrDseneEdbGpWH2eZ83MAwc9WXsa6YGvGNK1GTTNRiu4zyhwy/3l7ivXLC9hv7SO5gfdG4yPb2rysTS5JXWzPJxNHkldbMug08GogaeDWBykoNLUYNOBoEOzS5ptGaYhaM0maTNAC5opM0maBDs0ZpuaO9MBc0hNIaQ0AfONgxjmV1OCpBBr6n0K/XVNDsr1SD5sSlvrjn9a+WIEKtyMV7x8KNS+0+HpbJm+e2kyB/stz/PNYUnrY3qq6uU/i34T/tPSl1uzT/TLIfvNo5eP/63X868HkRNilTyeo9DX2A6LIjI6hlYYIPQivm3x34Ybwp4klSOPNjcZkgOP4SeV+oP9KdSPUmlLocURikxVmSJgocqMNzxUIGDjFYnQNxijFOIGaMUhiYyaMfSnDr0oxmkMiYFSGUcirlvIGUc1AV9qbGTFJjselD1DY01OalUe1QxNkAg5FTqKzZaJF4yO9Sgk1EvI9xUi8daljHinjpTRnPtTvbuKQxwPfv6UoAzyetANO24oAAOopc8g96bk/Slz3oAcetKBxg0h60D9aAFHJ9xS54pM8daMUwF4GKBz14wKafT0oJ4z3oAdnuKaenHSm5wKkSJ5RheB3J6VUYuTsgtcYfrVu102a7dURCWbooGT/8AWrb0bwxPd7ZXBii/56MOT/uj+tdja2Frp0Pl28YX1Y9T9TXdTwyjrU37f5g2o76swNO8MxWqrJd4d+ojHQfX1rUkIQYUAAdAKsTPVKV8iuxBdy3K8rVSlap5H7VTketoo1iiGRqqyNUsjVVkbrWiRqkQuajpWOTTT0qyxCcU1m4o+8CKZngg0xlrS9RbTr9JuTGflkHqpqbxBYra3Ymh5hn+ZMetZ0EElxL5cYye59K67Tju0wwAh5rb7hcA/Q/0rysdXjha0a0d9mvLo/kzOcHFqr02f9eRy0GkaldLuhs5mX12mi50XUrSPzJ7OVE/vFeK6fT9Q1i+vFhgnlMhOCo6Cui8VahFp+gfY5pFkunHzAHOKX9pVHrZG81yyjFa3/q55KzYOMYpnvVuZ1kB3Ln39KpsCDg/ga78LjI19Hoy5w5R27PNdf4K1wWtz/Z07YimOYyez+n41x2ecEfWnRyGORWUkEHIPpXRUpqpGzOarTU48rPdFNPBrnfC2tf2rp22VwbiLhx3I7GugBrx5RcXZnizi4uzJQacDUYNPBpEDs0ZptGaYhxNGabmjNAhc0ZpM0maYC0UmaM0ALmkJpKQmkB4BFGS6ocjeM9K9C+F8l3aeIjGIJWhmjKSEKcL3BP+e9dToXww0yzEcuok3UgHCdEH+Ndva2VtZR+XawRwp6IuBWMKbTuzedVWsixXMeOvDKeJ/DstuoH2uL95bsezDt9D0rpqQ1s1cwTsfJBiaKZrebcm0lSD/Ce4NV3jweDkdjXqvxZ8Ji0vRrdpHiC4OJwo+7J6/j/P615nzMgjCjevU+o9a5ZKzsdcJXVyntxRjIqQofTpSY5xUmgzFOxgU7FBGQDUjG4pjplealoK5oAW1kP3SfY1fXkVlH5HDZ+taULblHrSkhosDsakXt3FMXBFPHpioKH89PSpF9e9RqeOtPB79qQyTr9DQDximqe1L+NIBeM0uMfQ0ZX8KTOOtMB2e3pSg5HvTCDigdcj8aAHfxc0pOKb7Uf0pgLnPIHSk5bt1qSOJ5G+UYB7mur0TwjNchZrkGCE85I+dvoO1b0sPKer0Q7aXexg2GkT3swjjjZ2P8I7fU9q7nSvC9vZBZbrbLKOQuPlX/Gtq1tLawhENtEqL3x1P1NK8ld0IxgrQ/4Jm6l9I6CO+BxVaWTjrRLLVOSWtIxFGI2Z/eqMr+lSSSVTlfrW0UbxRHK/eqcjZqSR6qSPitUjaKI5Hqs7Zp7tTYYnubhIoxl3OAKvRK7NUhIoJJ2xGpOOp9Kke3VAdxJP5V6Rodtpul+XpbKklxIP3jYzye1cd4ktEsdXnhT7oORXj18ZUk/cdkVTacnFrz9TCaNOuD+dM+ymeQLCct6UkspVSB0qewLR2hdP9ZK+3PsKyWKrQV+Y0ioyly2NzQ0sdPY/amHIO5tuefatJtW8M2m4wWs8shGCS+M1e0jwhaSWCy3kheRhnGeBXM+I9Jh024/0cnaTXPNyleUtbhejWnyJvT7hW8Si1aY6fbJbmTq27LfnXO3d3LdyNJLIXdupJpjghs9u9QyOBz3qUjZKMdkCcY3Dr3pHRSCq9eoNRO+ASTxTVbcwYE4BrWnJwkproKTT0Gn1ozxTjw7Y6ZpMV9QndJnKy/ouqyaXqkNwhIAOHHZlPUV7Ba3MV1bpPC4eNxkEV4cV5rtfA2uCGf8As24f5JeYiezen41yYqlzLnXQ4cXR5lzroeig07NMWlrzjzB+aM03NGaYh2aM03NLTELRmkooAWjPFJRmgQGkNBpDSA62koopgFJRSGgClqunW+raZcWNyu6KZCp9vQj3FfNWvaPc6BrM1pKMSwNw2OGXsfoRX1ATXn/xN8Mf2tpf9p2yZu7RTuAHLx9/xHX86zqRuro1pSs7PY8EkaTPABHqai/eHuufpVuSPBqLbzXNc67EX70/x/pSBXz981Njml280rhYh8s/3m/Ogwg9cmrG30pMUrjsVnt0ZSMYPrVqymLfK33l4IoWMyOERSWPAAGSanl0u9sp7eaa1miWVtoLoV3fnRug0RaXg9aeBzj8qm+xupyc+lI0e38KzLGD1FSA+tM79KX0HegCXOTS59qjGe3UU4kEfWkMcOuPXvRt465ph7jNO7ZpgLnFGOfY0mR2NTQ2rzMAAdp6cdfpVQhKTtFAk3sRgFuACSeK1tK0O61GYJDGXbuf4V+protE8GvIqzX2Youvl/xt9fSu0t4YLOEQ28axxjoqiu2nh4w1lq/w/wCCKU1HzZlaR4YtNMCyzYnuB/ER8q/QVryOKR5KrySVvq9zFtyd2DyVVllps02KpySk9q0UTSMR8klU5JPemySnmqssprVRNoxHPJ71pW2hvc2yu4YO4yB6CsF5vWpZNZvzB5P2uXy8Y27u1YYqjXqRUaMuXuW4NrQuzaLEjMsl4iYPQsBVV9IsSDnVIgfTIP8AWseWTOTmqrtk0QwldLWs/uRSpS/mNg6HBJxHqlsx9CR/jV7SdFuNPvRdFopdinZtP8XauVzWporTNctHFI6swGNpxUYqliIUm1Uv6pfoXGnUbspfejb0/wC2Qa1BLJCzHzMlutZ3iW5F1q1xKpyC1dSXfSPD8t3duHu5cxx5Ayo7muEnJkJJPWvKXMklI3pOc25z3Whl3GTnJ4FXLOUPpoK9Y5Dn8elVLhSCcjj1qK1m+yTEjJif5X/z7Vs480TKNT2dW7OxsvFEsFv5TE8dKxtV1R7xmDZ4rOuGYHI5B5B9aqvJnuKhRbNueMXdIY7MT8zVVdyGIJOKmkfIyBVWXLAnvWqiYSqPoI0mWAJNTRnC7uvtVZRu5J5FIs7TNsj+6OretXTpOclFAqltWXART+oqNEwBnmpVr6FKysVfuIVpqu8UqujYZSCD6GpuM9Kjdcg4pknq/hfW/wC2dNDOR9oi+WT39DW7mvGfD+sS6Lqkcy8xsdsqf3l/+tXsNvPHcwpNC4eNxkMO9eXXpezlpszyMTS9nLTZk1LTRS1ic47NFJ2ooELRSUUALmikoNAgpCaM0hoA66kNFJQAmaQmlppNACE0xgGUgjIPUU40hoA8B+IHhg6FrjNCmLS5zJD6L6r+H8jXGsnU96+kvFWgx+IdEmtGAEw+eFz/AAuOn+FfO93bSWtzJDKhSRGKup6gjqK5akbO52Up8ysUj15q9pFrBfavaWtzKYoZZVR3HYE9apspGaUZUgj65FZmp6V4g+GUdhZPd6fcSyrGNzxuAWx6gjr9K80KjcccjsR3r3nwT4gTxDoCCUg3UAEcynv6N+I/rXl/jjw4dA15/LXFldZkhPZT/Ev4H+da1IK3NExpzd+WRzlhdvYahBdxf6yFw4z7Gvd400/xX4ehuCiskqh1zyY3H+BrwPHtXffDXxF9ivjpFw/7i4OYiT91/T8f51NOVnZ7MurFtXW6E1Cxa3nkidcOhwRWPNDtzxXpXivSvMj+3RLkrxIB6etcFcxZzXPODhKxpCfPG5iuvzU09Ksyr17VXIxSKDpRntTd2PpUsFrcXRxDEzY64FUk3sDdtyMGnKrucIMk9hVlNLuXuFiZSHPG1eSa7TRvCSRqsl7wOvlKev8AvGumnhpS1loh6Wuzn9G8PXOoPhEBGeZG4Vf8a9A0rQrPSwHC+bPjmRh0+g7VbTy4YxHEqoijAVRgChpeK7IxUVywVkZym3otETtJUbSVXeaoHn96pREoll5gB1qtJNmoHmqB5ferUS1EdJJ71Vklpk0wVSzMAB1NT2mmS3sfmCRFQjIOck1potypSjBXkyi8maqySVp3GmGNCQSSPesqWFhnqD6GqUkEMRTZBI/FVnap/slxMWC5RxjapXJY1UuYbm2IM1vIozhmxkD8qr2kVubfWKadmyNnycUynRRSXMMk8KM8UZwzAcCmdK1TTV0bxlGSvFh9at6ZK0Oowsp53Y4qoTTo5DHKjjqpBqasOeDj3Radnc6/9/r+oQWjv8qDn2FaGseGba1tvkOCBWDpmp/2dqi3yjdE47Vqax4pS7hKoDyK+bskrPc0n7T2i5NInG3cexnQjI9+1Z0kQ2/Wr1xNvYn1qmVZj8ozWkL2MKtm9BYJSg8txuTt7UssUbfd/Q04xiOMu2P/AK9VtjElzwT0HpXRRoOq9CNUrMa0eCRng+tVmQI4B6VaKO/Unim+SMep7V0RwM29WC1Kc0Jf5U4RvvGnxxJGuEGKnxkYqLoa9GjQjSVkWoq9xQcU8cVEaeG4rYbJcjFNJxTN+KaWzQSRv1zXceA9d2SHSrh+HOYSfXuK4huaIpHhmWSMkMpBUjqCKmrTU42ZlVpqpHlZ71RjBz+lYvhrXU1zTBKcCeP5ZV9/X8a2q8hpxdmeLJOLsxaWm0tIQtFJRQIKM0lFAAaQ0GmmgDsKKKQ0AIaaadntTTQA0immnmkoAjNeTfFDw15c663bR/JIQlwB2bs349Pyr1s1Uv7GDUbGa0uUDwzIUYH3qZR5lYuEuV3Pl9l5pnQitzX9Em0TWJ7GYEmNvlbH3lPQ1jOuOfeuNqzsdyd1dGz4T1+Tw7rsV1km3f5Jl9VP+HWvY/E2iweKfDjRwshkKiW2l6gNjj8D0/GvAe3PWvVvhj4lE1udEun+eMFrck9V7r+HWtaUvssxqx+0jyuaKSCV4pUKSIxV1PVSOCKbHK0UiyIxV1OQR1Br0f4neGRDcDXLVMJLhLhQP4uzfj0/KvNjwaznHldjWEuZXPd/Cuux+JdAV5NpnQeXcJ7+v0NcnrumHT714sHYfmQ+orkPCviCXw9q6XIy0D/LNGP4l/xFemeKdU0e68Pi7S+t2kwHiHmDc3qMdaqa9pDzRmr05+TPPp0waoSDGakbVYLjIjJyOCCKkt7Oa6kC7GJPRR1/+tWVKlOo7RR0pX2I7K3S4ukWV9kXV29hXYWkM94ghsYxbWg4MpHJ+lM03Q4YArXOGYciMdB9fWt5ZQoAHAHYV6tKhGku7E4q99ySx0+005MRrmQ/ekblmq35h35zx6VS87NNM3vWji3qxWb1Zeaf3qJp/eqbTe9RNN701EaiW2nqBpuetVmmqF5c96tRNFEstN71BJcBVJY4A5Jqu8vvUQ3XMghTlmOOlO1hytFXZDKsmqZVJDFbDhmI+97Cuq0cW+maGkC3BZi2cZBIrLWwaMMSNzKfmUNzmtSzs/NVSRhycCPHSsWtbs8uc+fVmg13YWdg09024KueD1rhG1VrvUHn2gD+BB0UV0WradG0DpOhCdwDyDXGyRGynwCGQnh6WwonWWl/bttFzDGxHfHIH1rRSw067O2KYpEfvK/Irj4rkFRz8x68Vr2V6keVJzmgbi+h0tjpmmaXGYrYZV3LEk5B9q5vXtDgLvPaJ5bddg6H6V0+nC1kCKzjPJ596pa5C1uhAwRn8qIS5XoFOcqcrpnnJBVsUd6t6jGI7ktjAYZ/HvVQHiu6LurnuQlzRUiaC4eAkcMh6qehqV5bZxnLxn0IyKqZprDdxWFbC06j5mtTRVJJWQkssG777N9FNCykjEURH+09II1H1p1ZQwMFuZe83djCCTlzuP6CkNPNNrsjFRVkhjDxUbdalPIqM88VaAhcY+aon55FTnng1AQVbB6U0O4wmm7qVhg0xuOaoB26k3YoRHlYLGpZvQDNa9noqC8SK/kCEoWEYOMkZ4J7EY6UnJR3JlJR3M22tZ72Xy4Iy7dTjoPrSyQNb3MkEhBZDjI6H6V1aNa6YFkMiRrtUiJlGSMYIIHJ5Gc/41zWo3iXdwJEi2ADHXkis4zcntoZRm5PbQueHtafQ9VWUZMD/LMo7r6/UV7BFIk0SyRsGRwGUg9RXkvhTRota1RkuXxFGm5lBwW9q9Xt4IrW3jghQJHGoVVHYVyYrl5tNzgxnLz6bk1GaTNFchxi0UlFMBaSikpAFIaU000AdhSUuc0lACGkoNGKAEpKU9aSgBDTSKfTTQBxHxE8N/2tpX2+3TN3aAkgDl07j8OteIyIQT6dq+oyAQQRkV4Z498NHRdZd4ExaXOXix0U91/D+RrnrQ+0jpoT+yziMDPNS2l1NY3kVzbuUlicMrDsRTXGD796jz1rE6D2GLx5oOteHpodTkFvM8RWSIqSCcdVIFeQ3DI87sn3SeKhzSqCxAXknsKqUnLcmMFHYTpU8FtLcthBx3J6CrtnpTSEGUHH90f1robW1igAyoJHQdhXXRwUpe9PRG8Ydyjpfh9FkEzZBPVz1/AV1NtHFbIFiUD1Pc1SE2KeJvevRUFFcsVZF26I0hNSmb3rO873pfONHKHKX/OpPP8AeqPm+9NMtHKPlLxn96jaaqZm96Y03vTUSlEtNLUTS+9VjL71G0ue9UolqJY8zc6oOrHFP1LUINOspYrS5UXQODj7wPqD2qvYOhvleQnamO/eorvT4pwZ1KruchsnHNc9aT2R52Jk5T5eiLHh/XbqO6tUaBJY0PzNzuwTyc12l3ex2moLd2qnyj82ccGuKh0yewZSm4IeuGIro2iult4drbhsG5c8A1jFHM11L2parBf2ZbaFkx25riblxKSjY2t0PvVy5luYw6naQc/WsWWTadx4OelUlYaSQluxE212C4PU1pW12mQSO/WsSaYvNvzyRUkc+BweaEgudbZakwmDAAjbjFX5b03fDtkY7muOivdoAGAasLqZjj3E89ST2qrCtcXVuLlR6CqFNaaW7lMr9+g9qd0rrp/Cj2KCtTSCilp8EE1zJ5cMbyPjOFUnirNWyOnRxSTSCOJGdz0VRkmty18K373kcd1G0UTk4dSGzwSAOe+OD0rTP2LRYPLimCbleGSdMiTOdyOvPK8YOPQ1lKqto6mMqq2jqzk7m0mtTH5q48xBIvPUGqxrb1fVBqtrYbgDdxq6yFEwDk5H49T+NLbeGbua3aaciEH7ikZOff0pqdleWg+eyvLQwSaY3rUjDkg9qYRng1oWRN61E43DNTEdRUttYTXEi8bIi2DIwOB/nI/One24NpasoFdwx3qzDpUzwiaXEcJIBY9RnGDj05HNdPBosVjcDaEZkBcs/XgDt2HDDnpx7VVv9Ugs7V7W12TD5lOc4Vc5A9xnP59az9q27RMvauWkSxawadp9tIxj8kEFCXOd2eoz/Mexx74eq6uLnZHFEF8shll5DDH/ANbH5VnS3c9yFWWRmCDCgngCo1V5iI4kZ5GOAq8k0407PmkwjTs+aTHzEMA3mNI/dj0+gos7W5v7gQWsLSueyjpXT6N4HnucS6k7QxdfKX7x+vpXe6fp1pptuIbSBIkHoOT9T3rOpiYx0jqYVcXGOkdTm/DPg59OuEvr2Y+evKxRngfU967OminCuGc3N3Z505ubvIWl7UlFSQFFAooAKM0UlABmmmlpDSA7CkNFFIA96Q0tJTATrRS4oIoAbSU7FJQA0isXxNocev6NLaNgSj54XP8AC46fh2/Gts00ihq+g07O58w3trJbXEkMqFJEYqyHqCOoqg4ANer/ABQ8ObJ01i2jyJSI51A6N2b8en5V57BpqjDTfMf7o6VjTw05ytFHoU71FdGdb2clycgYXuxrbtLOK3B29T1Y9akGAMAYAoya9ahhIUtd2dUaaRbRgowOKeJeap7yKcJK6LF2Lvm9s0ol96peYeDThJ3pco7F7zeKXzqo+b6ZNSQxzXDbYY2c+1TJxirtjUblkzUnm1o2/h64bBuGCAjO1eTW7a6HFAyGODcQuSSM8151bNKFPSPvPyN44d2vJ2OSUTOcJG5+gqxFpV/cKSkP4E4rs47KKIcDzGA5weBUdxcxxQmOPYT34x+ArglnFR/DFI1jQg3aN2cFMHhkMcilWHY1EXya29ejhFukm0CUtgEcccnpWAOa9rCV/b0lNqxlUhyS5SW2n8idnJGAAelWrpor9fM80Ic52dBn1rLnyo3Dp0NRpKxO1AScE8elZVtJtM8XEx5arubUMrWVuJDN52eNrnOKjTW5xOS0rKvfb/hWSbnMRTnioBNg56msbmFzafVWmyAx56g96o3D7sgiqu/PPQ0hkLDrVpiHbHf5lXI9aYfkOD8tWYZMxgKKcYA5+fmt1Suro7FhFKKaepWWT5uMsfbmp1ieQgynA7KP61MqKgwoApcVpGilub0sLGGr1F6DFGDjdg4zjNKqu27apOBk4HQVc0+ZD5lnOQIJ8Dcf4H/hb+h9ia0bsdLdkM0y3iu9StreZ9kckgVmHYGtw2iaLcXMNxJ5VreI0IlifeYWUg4bAGe2frXOSxSW07xSArIjYI9CKvvJqmt+WjtLOIuASOB9T68fXiomm9b6Gc1d3voXbnWzawR2tpP9oeOPymuMEBlzkAA8/KehqpFYalrM6zXEjnfhRLMSSevA9elXLWxsdLdLi8lWQqN2wj72em0HqQR+RqtqHiG4uGKW7NFHzzn5jUL+4vmQr/YXzLRNlobx5j3zqQxIYFsj+QP+e1ZWoa1d6gSHfZGf+WacD8fXpVA5PJNKiNIwVFLMegArRQS1e5aglq9yMjvUtvY3F5JtgjLnv6D/ADmtFdHkhw84V85UIrdH7KT747Vrrc2mmRq6SqseN4hIyckDAx69Ofb3pSqfykyqfy6mR/ZkdhOPtMazKRtZzkBDnAOOuDxz71dvNWsra2aBEMjYKlDjp74+p6dOlZd/q73e4LEkasoVmAyzAc4J+vNZTAA5pKDlrInk5tZCz6te3WIpZGZAfu5/Wq7PtOHGPTNXrHS7vU5QbePEPeVuB+HrXXab4ctLNlldfOmHR36D6CidaENETUrwp6Lc5fS/Dd7fEO0TQQnkM3BI+ld1pmj2emxgQQqJMYZyPmP41cRamUVx1Ksp7nn1a86m5IoqZajUU8Ak+1ZGJIKWminCkgFpaSimIWikooAKKKQ0AITSUpptAHZCg0UVICUYpaKAEpKdSUwEpKU0lADaaeacapyy3g1GKOO3RrQoTJKXwVbsAO9MDyjxrcap/bUttfzFo1O6FV4UqehArmO9erfEHRnvtLjvYU3S2x+YAclD1ryoivSw81KFl0PXw01KCsNoooroOgQe9Lig0+GIzyrGD1OM+lTKSiuZ7FJN6IRF3Oq5AycZPar0GmSea4lXKqM/KetbemaZFAMmMM54y45/+tW7FoJILtjBGVbOMV8/i82d3GlsXWwknC3Pyt+Rj6ZZ2UlldwqWUyldyHqBnkg1qaamlRt5fmxJGpx1/wA5oOikZIdlGOSv8qypdHCh3iJJUZK5wfwrx3VdVvmk9Ty6mBxii1GSkuuu517z2JlMUaLJIeTub8uKbc3YRf3rjb2Re9cFC2JzvDq3XB71cbWSjYVtpXgAGlKnK9kdWXVZ4io41FZR6dTYu9SLjYrFAOirwKzZLhmcfMSx79waoy3z3EhwdzsF5Bq5bQ7CWYjcTk96bXKtT6KmopaIz7+wurlg6HeAOF6YrHdHjco6lWHBBHSu5SbYp8sjd0y3GK5zxCp8+GQ8llOTjk/5zXs5ZjZykqElp0OPE01rNGMQGUgjg1RniaNjj7vY1eBoOCMGvaqUlNanmVqKqrXcycmmjIOc1oyWsZ5GV+lV/szlsLjHqa45UJrzPOlhai8yLJxxT4oWnOBwnc+tWY7RQfnO727VZACjA4rWFB/aN6WDd7zGpGsa4UU+hVZ3CqCzE4AAyTWnHoGoOI8w7S5ZdjcMCozjB7kcgd66W1Hc7m4x3M9IZJQxRGbb97AzitnSvD0t2sdxcuIbUybXycOBnGefcgVvafa2mhWRu45ElnA3M3mbN8Z5BwT6dMZO4Vk6l4neSMW1qxlhKYZ7iMFi/I3d+cYGfbNZOpKbtAxdSU3aBoWs2n2k1vaSW8USSRvDKSwWSKQAq2/PVTwf5VxTfeIrZsNEudRmaS5kaNcb2ZzlmH+fX1FP1pdIggW3sjvlQj5hz9cnvRFqMrLVhBqMrLUz4riO5voGv8mMAI5XgkDgE+vb8q2bzxHHbhoNLQKmAA5XGPoK5qkNaOmm9S5U4t6kk88tzIZJpGkc92Oai70tIaqxRoWmkT3IVyQiNjbn+Kta1eLToUSVI45YzhxwA3qd3OcjOPcEd6xbbUTb2zwld2c7QTgDIIOfXt+VVZZpJ23SuWPQZPQVm4yk7PYycXJ2exqalrZuRJHCpCNwSxzwPQduv8vSsaSR5HLu7Mx7scmlCPIwSNGdz0VRkmtzTvDTuBJffKP+eSnn8TScoU0TKcKS1MKCCe8l8m3iaR++BwPqa6TT/DEMYD3hEz9dn8I/xrdt7SK2jEcMaoo7KMVYVK5p15S0Whw1cTKei0RHHEqqFVQAOAAMYqdVpVSpVWsDlBVqUCkAqQCkAKKkApAKcBQAuKcBSAUtIApaSimIKM0UUAFJRRQAlNNKaQ0gOyooopAFBNJSUAKaM0maTNMBabS9aQ0AJSGlpKAGkZGD0ryHxxoi6VrHmwrtt7nLqAOFbuP6/jXr5rK8QaNFrelyWr8P96Nv7rdq2o1OSVzahV9nO/Q8MIxSVPcW8ltPJbzKUljYqynsRVevV3PZWotamixRtI7uM4wAKyq1dEwWcFsciuHMm1hpW8jowyvUR3GkxRuc7gR0AbnH0qW7vWEpCHAHAFR6UbcHam4t2Pas+7d1dj718duzsUFKq7mxZ3fnMY3H3qpXxWKYBV+6cg471Fpkpd0J7nFaGqMFLYReRS21FyqFXltuZNxFAXaTyQ0boAMH7jH0rjdVt2sdVMShtjruUHqK7GV9ltBKhHmBznI4IrnfELZe0kYHdgpnrnof6110H7/qRXprl5l3JbCLZEGfJJ6kckVopKiKGZvmVh8uRyDWRaiWXKxA9QNxGOK1otNlJ8xsuM5O2oqWvqdtOXupbIk+1CONnbC+WCGGOorm9SvhfXW9QQijaoPXFdY1hGyblJZTwQRXG38Atb+WEdFPH0r08n9m6rb+K2hy4t+6uXYhzRmm0tfRnAL1oAozRQA9VaRgqKWY9gM02pFaayug2GimibPIwQRVrUYkJjvIFAhuMnaP4HH3l/qPYipvqK+ptw6d9jsLHWNPkjMsMfnurMSz4OGGMYGM4x171Z1LxJZLHG1molZgPlO9TGBgpkk8sp3cjsa5m1mvpImsbaWYxyn5olY7T9RWzB4ftrS3NzqF1GpU8J/Dn09T+FYSjFO83c55Rin77uUUTUfEV0ZJHB2LguQFVR9B+NaX2XStGVjPL5s4AKlfvZ9h6YxVG619ow0ViBGvK+YBgleuMduScfWsV3ZyWYkseSSetWoyl5IpRlLfRF++1i4umdEdkhY/dzz+f15rPHSk6nNLmtFFLRGiSSsgopCaQk4yBn2pjFpCaXoKvWOj3moEGJNkXeR+n4etTKSirsiU1FXkyh1IA6+lamnaBdXhDzKYIf8AaHzN+Hb8a6XTtDtrABgPMl7uw/kO1aYX2rlniG9InBVxbekDPs9Ot7FNsMYBPVj1NWwlTbKcErmbvucTbbuyMJTwtSBacEpCGqtPC04LTwtADQtPApQKcBQAgFOAoApcUgClxRS0CEpKXFBoASiig0AJSUtJSASmk06mmgR2VFFFIoKQ0tFAhKTrTqKAG0YpaSmAlJSmkpgIaaadSUAea/ELQWjuBq9vHmN8LPjsexrgHHGa+grq2iu7aW3mQNHIpVlPoa8N1jTZNK1S4s5Qf3bfKT/EvY16GFq3XK+h6eEq8y5H0MzNW9Nl2XWM8MMVSY7WxTrdylwhHqK0xNP2lGUfI9GlLlmmel6LJBGVI+Zz6mn6pCEmbA4asjSHWORTKx+grc1BxII3UcEV8NJ2bR6M041k+5V06ELIp/ucml1ScSEupwcY21JbnyomY554rJuMyXQQMAuep7UlqyormqOT6BfXO2G3i2hht3HOP89q57Vds15BD/BGuefU/wD6qv3t4klyxyfKhXA9wP8AJrkZ5GuLiSVmO5mJ616mDwsqzbWljnxNRQila92dtZIkYA3oo27gSR+X1rUt5FXaVmXcw3HDDivM1j3Dk1IIwK63kspauf4EvGykrcp6ldajbWsTSTXKInpxlvw7153e3TXt/PckbRI2VHoO1VRjFOFd+Cy6OGble7OeU3IeDThzwOtPt7O4u5AkELOzZIAHoMn+VdZpfhS1VYZ7y7R1cMybPukgZ4J6kEdOhGcGu2dSMdzGdSMNzFsvD+oXV2sDwSQA7vnkjbHAyRwOT7CtxbW00O1cgQSTlCPMlw6NIjEPGOOMqRg07VPFcUMtwlk7tIqqkEqN+7C5DD5SOoyV+lYMVvf69drI5ADnaH2hVGB0AHHSsvelrLRGV5S1noh3iK4trzUUuLbAEkEZdQ27a23BGe54rMW4kFu0Ab92zBip9Rnn9a6DU7LSNN097fzPMuyDz1YMD+QFc1nPNaU2nHQ0ptOOhZsb6ewuVngYBwCORkEe9JdXs95M0txKzuxzzVYmkzkVfKr3Lsr3Hk80gFIDxRmmA/NGaQDNSQwyXEgjgjaRz2UZpNpbibS1YzFWrLT7m/fbbxlh3Y8AfjW/p3hPcFl1Bj6+Uh/ma6eKCOCMRxIqIOgUYFc1TEJaROKrjEtIamDpvhmC1xJckTy+hHyr9B3/ABrcEYAAAwB2FTbaXbXJKTk7s8+c5Td5MiCUu2pQtKFqSSPbTgtSbaULQAwLShakC0oWgBoWlAp+KUCgQ0ClAp2KUCgBuKWlxRSATFFLRigBKQ5xxS0GgBtHalpKAEpKWkNIBppppxppoA7QUUlLSGJRRRQIKKKSmAUlLSUAJSU6kpgJSUtJQAhrjvHnh/8AtHTTfW6f6VbDJx1ZO4/DrXZUxlDKVYZBGCKqEnGSkioTcJKSPnZ13D3FV2yDXVeLdAfQtWbav+izEtE381/CuZmXB+texCSkk0e5TmpJSR1GiXCyQxsx+bGDXXTDfYRP0IOMV5xot15MpjPrkV29terNaYZuRzivicxoOjiJLp/mexrUpxmuhJeFobVdrDgZNYd1cG3tWfAEs3Cn0HU1ZvbozzFVb5R970rmdW1JVAx87YxGucge9Z4elKckktRykqdO8ijqd8wYwxk7m5f2HYVRTJwajVSXLSHLMck+9TqccV9fhMN7GCR5MnKpLmkPBxT93pUYNANdhRKDg10dvpDafBYaw8LXdrxLMgUbQucY68+/GBxXMhq07fXLyHTX09SjRsCoLLllDY3BT2BwKiak9iJqT2Oul1a00+ygke4nIkka4ji2JnpghlU4CsD9Rg+tcy9/qGqeVp0Qzbq/7qMAfKOcAt1OAT1q1pvhl5kE1/KLeHBbaeuB6+lPudXtNNHkaaI5Cv8Ay02kAEHg+56/nWEVFO0dWYR5U7R1ZZh0Sx0wLNqlwjnPKZIAx1x6npVC+11mby7IvFEBty2Mkf06msie7nu5mluJGkkPUmowc1oqfWTuaqn1lqx5JYkkkk9SaTpSA0E1oaC4FJ0oByKXIA5oEA6+1OBGQAMsegFaWmaDe6thkTyoO8jjAP09a7XS/D1npgDInmTf89HGT+HpWFSvGOm7OarioU9FqzmNL8LXV1tkugYYjzg/eI+nauustMtdPj2W0Kpnq3c/U1fC0u2uKdWU9zzatadTcj20u2pNtLtrMxI9tLtqTbS7aAI9tKFqTbS7aAI9tKFqQCl20AR7aXbTwKUCgBmKXFOxS4oAZilxTsUYoAbikxTsUUANop1JSAbRS0h60CG0hp1JQA2kNLSUhjTTTTjTTQB2dFJmlqRhRRRTAKKKSmIKSlpKAEopaKYDaKWkoASkp1JQIxPFGjLreiy2+B5y/PEfRh/j0rxCWMqWjdSrKcEHqDX0Sa8v+ImhpaXUeqQKFSc7ZQOz+v4/0rrwtWz5Gd2Dq2fI+p53uaGUOpwVNaltryKu2ZXU+qjNZ86ZG4fjVQ8Gt8Tg6WJS51qj2qVadP4Wbl1r4Ns8NqrAv952GKxMbsljlvU00nnNGeaeHwVLDr3FqKpOVR3kKSMUucjNIcdaTdiuoglBBHvQT3FRA80/dRYB4PelzzkVHu7Uue1KwGleave30ccdxOzpGoCr2/H1NUtx3ZFR7uMGjfg4pKKWwkktiUsByKN+ORUO/qD3oXJ460WHYn34IIp+c80y2t5biURRIzuegAzXbaP4KYhZdTYY6iFD/M/4VnUqRhuY1a0Ka95nL6fpt5qE+y2hZ/VugH1NdrpXhC3tCst2RPL124+Uf410lvaQ20QjgjWNB2UVMFrhqYiU9Fojza2KnPRaIiCADAGAKdtqTbS7a5zlI9tLtqTFKFoERhaXFSbaXbQBHtpcU/bS4oAZto20/FLtoAZijFSbaNtAEeKMVJijFADMUYp+KMUAMxSYp+KMUCGYoxTsUmKQDTSYpxpDQA2m04ikxQA00lOpDQMYaQ04000gGmmk040w0AdmKWm0v0qRhmlpKKYhaSiimAUUUtACUlLSUAFJ2paSgBKSlopgNNUdW0uDV9NmsrgZSQcH+6exq/SUXsCbTujwDVNPl0rUZrG4GJIzgnsw7EVjzRlWNetfEjQmurNNVt0zLbjbLjqU9fw/rXlsi709xXr0KnPG57VCr7SCkUehozQ4wabmug6hwbsab14oHJ9607fR5GmAu8wKAGKn7xU88fhk/gamTS3E5JbmZTga64aLZGxZU2qZgNrGXcCQucr6nOf/ANRrBg0HULiLzVhwvUbuNw9R7e9QqsWQqsWUM5FJuq5qunnTpVwwaNv4h0yOorOyTyKtNNXRcWmrok35pQS31piRueSMfWug0TwxqOqndDBiHODM/C/h60pyjFXbFOcYK7ZjLE7AYGT6Cup0TwXeX5E13utoe2R8zfQV22jeErDSFV9gmuR1kcdD7DtW5srgq4tvSB5tbGt6QMzTtHs9MiEdtCFI6ueWP1NXwtS7aUJXG227s4W23dke2lC1IFpdtAiPbQFqXbS7aBEe2jbUmKUCgBm2jbUm2l20AR7aNtSYo20AR4pcU/FGKQDMUuKdijFMBmKMU/FJikIbikxTsUYoAZikIp+KQigBmKSnGkNADaQ06kNADaaaeabikA3mmninGmtQMaaQ0GjrQAw0w08000gOxJ7UDikzikzmkA6gU0c0u7nFMBc0vFNpc0ALRSUZpgLSGlpDzQAUlLSUAIaSnGkpgJSUtJQBHIiyxsjqGRhggjgivDfFWjN4f1+W3XP2aT54T/snt+HSvdTXNeMvDq6/pLeWo+1wAvEfX1X8a3w9Xklrszow1X2c9dmeH3EfOR0PIqFLad4ZJkjYxJjew6DNXXQ4aNhhhxg9jVnSdRkhY2bRNOr/ACrHkDr1HPT1z9fWvVcmloew5NLQn0+0jt3WWEM7BPMSZTyPl+dSB90jJIJ9qleRJ9jWQkuJUX946LtjHVs88hs5OPw5psenOdJnlubzaS+drH5A5IxuYZJyPw706PVV0q4Z2AjlhwgjA3b1wcYHQEdM+9YPV6asxer01Y2CGSP/AExbrMsaFcMmQqkcMOwHbHs1Nk1c6NLshkWVwWZVUnEW4cDPt6VkXWsXd6JIkJiikOTGh68dz1Izzj1NQwWpklWNVaaZjgIgzWip9Zmip9Zli71O71WGOOcgrGxbd9e34f1qbS9IudRnENjbyTyHuBwvuT2rsdA+G81zsuNYcwR9RAh+Y/U9q9GsdOtNNtlt7SFYo17AdfrXPUxMYLlgctXGRguWn/wDkNC+H9vaBZ9UZbmbqIx9xf8AGuvWFY0CIoVQMAAYAqzimkVwznKbvJnnTqSm7yZBto2VNtpNtQQQ7aXbUu2jbQBHto21LtoxTAj20jA1LikK0ARqMinbaUDFLQAmKMU7FLigBmKMU/FJSAbijFOxRQA2jFLRQA3FIaeaSgQ3FJinUhoAZSU6koAaRTcU40lADaSlpKAGmkpxpppDGmmNTyaY1ADDTacaaaQCE000pppoA//Z;" vertex="1" parent="1">
                    <mxGeometry y="240" width="106.67" height="80" as="geometry"/>
                </mxCell>
                <mxCell id="9" value="" style="edgeStyle=none;html=1;" edge="1" parent="1" source="6" target="8">
                    <mxGeometry relative="1" as="geometry"/>
                </mxCell>
                <mxCell id="6" value="&lt;div style=&quot;&quot;&gt;&lt;span style=&quot;font-size: 20px; background-color: transparent;&quot;&gt;Conv Block1&lt;/span&gt;&lt;/div&gt;" style="rounded=1;whiteSpace=wrap;html=1;verticalAlign=top;align=center;" vertex="1" parent="1">
                    <mxGeometry x="130" y="250" width="60" height="60" as="geometry"/>
                </mxCell>
                <mxCell id="11" value="" style="edgeStyle=none;html=1;" edge="1" parent="1" source="8" target="10">
                    <mxGeometry relative="1" as="geometry"/>
                </mxCell>
                <mxCell id="8" value="&lt;font style=&quot;font-size: 20px;&quot;&gt;Conv Block1&lt;/font&gt;" style="whiteSpace=wrap;html=1;verticalAlign=top;rounded=1;" vertex="1" parent="1">
                    <mxGeometry x="210" y="250" width="60" height="60" as="geometry"/>
                </mxCell>
                <mxCell id="13" value="" style="edgeStyle=none;html=1;" edge="1" parent="1" source="10" target="12">
                    <mxGeometry relative="1" as="geometry"/>
                </mxCell>
                <mxCell id="10" value="&lt;font style=&quot;font-size: 20px;&quot;&gt;Conv Block1&lt;/font&gt;" style="whiteSpace=wrap;html=1;verticalAlign=top;rounded=1;" vertex="1" parent="1">
                    <mxGeometry x="290" y="250" width="60" height="60" as="geometry"/>
                </mxCell>
                <mxCell id="15" value="" style="edgeStyle=none;html=1;" edge="1" parent="1" source="12" target="14">
                    <mxGeometry relative="1" as="geometry"/>
                </mxCell>
                <mxCell id="12" value="&lt;font style=&quot;font-size: 20px;&quot;&gt;Conv Block1&lt;/font&gt;" style="whiteSpace=wrap;html=1;verticalAlign=top;rounded=1;" vertex="1" parent="1">
                    <mxGeometry x="370" y="250" width="60" height="60" as="geometry"/>
                </mxCell>
                <mxCell id="17" value="" style="edgeStyle=none;html=1;" edge="1" parent="1" source="14" target="16">
                    <mxGeometry relative="1" as="geometry"/>
                </mxCell>
                <mxCell id="14" value="&lt;font style=&quot;font-size: 20px;&quot;&gt;Conv Block2&lt;/font&gt;" style="whiteSpace=wrap;html=1;verticalAlign=top;rounded=1;" vertex="1" parent="1">
                    <mxGeometry x="450" y="250" width="60" height="60" as="geometry"/>
                </mxCell>
                <mxCell id="19" value="" style="edgeStyle=none;html=1;" edge="1" parent="1" source="16" target="18">
                    <mxGeometry relative="1" as="geometry"/>
                </mxCell>
                <mxCell id="16" value="&lt;font style=&quot;font-size: 20px;&quot;&gt;Global Average Pooling&lt;/font&gt;" style="whiteSpace=wrap;html=1;verticalAlign=top;rounded=1;" vertex="1" parent="1">
                    <mxGeometry x="530" y="240" width="120" height="80" as="geometry"/>
                </mxCell>
                <mxCell id="21" value="" style="edgeStyle=none;html=1;" edge="1" parent="1" source="18" target="20">
                    <mxGeometry relative="1" as="geometry"/>
                </mxCell>
                <mxCell id="18" value="&lt;font style=&quot;font-size: 20px;&quot;&gt;FC Layer1&lt;/font&gt;" style="whiteSpace=wrap;html=1;verticalAlign=top;rounded=1;" vertex="1" parent="1">
                    <mxGeometry x="670" y="250" width="70" height="60" as="geometry"/>
                </mxCell>
                <mxCell id="23" value="" style="edgeStyle=none;html=1;" edge="1" parent="1" source="20" target="22">
                    <mxGeometry relative="1" as="geometry"/>
                </mxCell>
                <mxCell id="20" value="&lt;font style=&quot;font-size: 20px;&quot;&gt;FC Layer2&lt;/font&gt;" style="whiteSpace=wrap;html=1;verticalAlign=top;rounded=1;" vertex="1" parent="1">
                    <mxGeometry x="757" y="250" width="70" height="60" as="geometry"/>
                </mxCell>
                <mxCell id="22" value="&lt;font style=&quot;font-size: 20px;&quot;&gt;FC Layer3&lt;/font&gt;" style="whiteSpace=wrap;html=1;verticalAlign=top;rounded=1;" vertex="1" parent="1">
                    <mxGeometry x="850" y="250" width="70" height="60" as="geometry"/>
                </mxCell>
            </root>
        </mxGraphModel>
    </diagram>
</mxfile>